<svg width="443" height="395" viewBox="0 0 443 395" fill="none" xmlns="http://www.w3.org/2000/svg">
<g clip-path="url(#clip0_645_4460)">
<path d="M50.8112 395L50.4257 394.857C37.3661 389.926 27.1345 379.494 22.4488 366.332C21.1793 362.674 20.3749 358.871 20.0546 355.012L20.0232 354.644L20.3865 354.709C24.7235 355.488 29.2764 355.918 31.305 356.087L19.9243 348.548L19.9448 348.157C20.122 344.476 22.5183 341.274 25.9967 340.069C29.5083 338.771 33.4556 339.742 35.9663 342.522C37.0977 343.751 38.2939 344.989 39.4505 346.186C43.4255 350.298 47.5358 354.55 50.1348 359.571C54.0436 367.306 54.2558 376.394 50.7122 384.303L50.8112 395Z" fill="#F2F2F2"/>
<path d="M281.086 387.695L281.081 387.654C280.578 376.473 278.529 365.415 274.991 354.797L274.988 354.779C274.782 353.689 274.841 352.565 275.163 351.502C276.151 348.458 279.214 346.594 282.369 347.118C285.628 347.731 288.998 347.155 291.869 345.494C293.693 344.435 295.905 344.289 297.852 345.098C299.688 345.847 301.061 347.422 301.555 349.344C301.593 349.495 301.627 349.647 301.656 349.803C301.759 361.037 303.821 372.167 307.747 382.691L307.75 382.705C308.16 384.878 307.505 387.117 305.987 388.725C304.646 390.087 302.766 390.779 300.863 390.609C297.445 390.376 293.931 391.07 290.118 392.732C288.786 393.325 287.288 393.43 285.887 393.029C283.408 392.302 281.551 390.238 281.086 387.695Z" fill="#7F56D9"/>
<path d="M171.844 234.096V380.931H274.603V234.096C274.606 231.928 273.197 230.012 271.128 229.372C270.652 229.214 270.155 229.137 269.654 229.143H176.807C174.071 229.137 171.849 231.353 171.844 234.091V234.096ZM211.946 284.549C212.002 278.484 216.959 273.613 223.017 273.669C228.996 273.724 233.83 278.563 233.885 284.549V301.586C233.857 307.651 228.922 312.544 222.864 312.515C216.846 312.487 211.975 307.61 211.946 301.586V284.549Z" fill="#F2F2F2"/>
<path d="M171.529 376.235V390.394C171.534 391.92 172.765 393.159 174.29 393.172H272.157C273.684 393.164 274.918 391.923 274.918 390.394V376.235H171.529Z" fill="#E6E6E6"/>
<path d="M10.1896 12.871V280.97C10.1952 288.084 15.9548 293.849 23.0613 293.855H419.939C427.045 293.849 432.805 288.084 432.81 280.97V12.871C432.794 5.76398 427.038 0.00901551 419.939 0H23.0613C15.9618 0.00905094 10.2065 5.764 10.1896 12.871Z" fill="#E6E6E6"/>
<path d="M416.628 9.30601H26.3722C22.5707 9.31428 19.4933 12.4013 19.493 16.2068V277.663C19.4995 281.463 22.5756 284.542 26.3722 284.549H416.628C420.424 284.542 423.501 281.463 423.507 277.663V16.2068C423.507 12.4013 420.429 9.31429 416.628 9.30601ZM318.184 195.059C317.018 197.366 314.652 198.817 312.069 198.811L312.029 198.808C308.287 198.287 304.532 197.943 300.763 197.776C301.349 198.196 301.864 198.706 302.289 199.287C303.383 200.855 303.719 202.832 303.205 204.674C302.353 207.995 302.393 211.581 303.33 215.637C303.669 217.056 303.5 218.55 302.85 219.856C301.684 222.163 299.318 223.615 296.735 223.608L296.694 223.606C287.76 222.36 278.714 222.119 269.726 222.886C269.69 223.113 269.646 223.34 269.587 223.567C268.735 226.888 268.775 230.474 269.712 234.53C270.052 235.949 269.882 237.443 269.232 238.749C268.066 241.056 265.7 242.508 263.117 242.501L263.076 242.499C253.9 241.22 244.608 241.001 235.383 241.846C235.313 244.152 235.552 246.457 236.094 248.7C236.434 250.119 236.264 251.612 235.614 252.919C234.448 255.226 232.082 256.677 229.499 256.671L229.458 256.668C218.384 255.124 207.15 255.124 196.076 256.668H196.058C194.949 256.673 193.856 256.409 192.871 255.899C190.061 254.371 188.789 251.015 189.879 248.006C190.214 247.059 190.463 246.083 190.622 245.091C180.473 243.92 170.217 244.041 160.099 245.451H160.081C158.972 245.455 157.879 245.191 156.894 244.681C154.084 243.153 152.812 239.798 153.902 236.788C155.099 233.693 155.148 230.27 154.041 227.141C153.519 225.674 153.519 224.072 154.04 222.605C146.412 222.216 138.764 222.551 131.199 223.606H131.181C130.072 223.61 128.979 223.346 127.994 222.836C125.184 221.308 123.912 217.953 125.003 214.943C126.199 211.847 126.248 208.425 125.141 205.296C124.434 203.308 124.693 201.104 125.843 199.335C126.914 197.665 128.711 196.601 130.689 196.466C130.844 196.455 131 196.45 131.158 196.45C135.034 197.128 138.947 197.571 142.877 197.775C140.37 196.126 139.32 192.971 140.337 190.146C141.534 187.05 141.583 183.628 140.475 180.499C139.768 178.511 140.028 176.307 141.178 174.538C141.227 174.462 141.285 174.395 141.338 174.321C138.541 174.514 135.752 174.804 132.968 175.192H132.95C131.842 175.196 130.748 174.932 129.764 174.422C126.953 172.895 125.682 169.539 126.772 166.53C127.969 163.434 128.018 160.012 126.91 156.883C126.203 154.895 126.463 152.691 127.612 150.922C128.683 149.252 130.48 148.187 132.458 148.052C132.614 148.042 132.77 148.036 132.927 148.036C137.588 148.853 142.302 149.328 147.032 149.458C145.825 147.717 145.528 145.501 146.235 143.504C147.432 140.408 147.481 136.986 146.373 133.857C145.666 131.869 145.926 129.665 147.075 127.896C148.146 126.226 149.943 125.162 151.921 125.026C152.077 125.016 152.233 125.01 152.39 125.01C156.334 125.701 160.317 126.147 164.316 126.347C163.457 124.719 163.316 122.805 163.929 121.068C165.125 117.973 165.174 114.55 164.067 111.422C163.36 109.434 163.619 107.229 164.769 105.461C165.84 103.79 167.637 102.726 169.615 102.591C169.77 102.58 169.926 102.575 170.084 102.575C174.725 103.388 179.418 103.863 184.128 103.994C183.487 102.478 183.434 100.776 183.981 99.2234C185.178 96.1277 185.227 92.7053 184.12 89.5765C183.412 87.5887 183.672 85.3843 184.822 83.6157C185.892 81.9454 187.69 80.881 189.667 80.7458C189.823 80.7354 189.979 80.7299 190.137 80.7299C201.19 82.6774 212.497 82.6789 223.551 80.7343H223.565C224.418 80.9102 225.298 80.9102 226.151 80.7343H226.164C237.218 82.6789 248.525 82.6774 259.578 80.7299C259.736 80.7299 259.892 80.7354 260.048 80.7458C262.026 80.881 263.823 81.9454 264.893 83.6157C266.043 85.3843 266.303 87.5887 265.596 89.5765C264.488 92.7053 264.537 96.1277 265.734 99.2234C266.281 100.776 266.228 102.478 265.587 103.994C270.297 103.863 274.99 103.388 279.631 102.575C279.789 102.575 279.945 102.58 280.101 102.591C282.078 102.726 283.876 103.79 284.946 105.461C286.096 107.229 286.356 109.434 285.648 111.422C284.541 114.55 284.59 117.973 285.787 121.068C286.399 122.805 286.258 124.719 285.399 126.347C289.398 126.147 293.381 125.701 297.325 125.01C297.483 125.01 297.639 125.016 297.794 125.026C299.772 125.162 301.569 126.226 302.64 127.896C303.79 129.665 304.049 131.869 303.342 133.857C302.235 136.986 302.284 140.408 303.48 143.504C304.189 145.506 303.889 147.728 302.675 149.47C303.202 149.868 303.668 150.341 304.058 150.873C305.152 152.442 305.488 154.418 304.975 156.261C304.122 159.582 304.163 163.168 305.099 167.224C305.439 168.643 305.269 170.136 304.619 171.442C304.382 171.907 304.092 172.344 303.757 172.744C306.518 172.501 309.272 172.139 312.019 171.657H312.033C314.242 171.649 316.321 172.703 317.623 174.49C318.717 176.058 319.053 178.035 318.54 179.877C317.687 183.198 317.728 186.784 318.664 190.84C319.004 192.259 318.834 193.753 318.184 195.059Z" fill="white"/>
<path d="M403.97 45.3227H38.8093C38.0073 45.305 37.3715 44.6399 37.3892 43.837C37.4063 43.0591 38.0322 42.4325 38.8093 42.4154H403.97C404.772 42.4331 405.408 43.0982 405.39 43.9011C405.373 44.679 404.747 45.3056 403.97 45.3227Z" fill="#E6E6E6"/>
<path d="M225.801 249.707L225.76 249.704C214.686 248.159 203.452 248.159 192.378 249.704H192.36C191.251 249.708 190.158 249.444 189.173 248.934C186.363 247.406 185.091 244.051 186.181 241.041C187.378 237.946 187.427 234.523 186.32 231.395C185.612 229.407 185.872 227.202 187.022 225.434C188.092 223.763 189.889 222.699 191.867 222.564C192.023 222.553 192.179 222.548 192.337 222.548C203.39 224.495 214.697 224.497 225.751 222.552H225.764C227.974 222.545 230.053 223.598 231.355 225.385C232.449 226.954 232.785 228.93 232.272 230.773C231.419 234.094 231.46 237.68 232.396 241.736C232.736 243.155 232.566 244.648 231.916 245.954C230.75 248.261 228.384 249.713 225.801 249.707Z" fill="#7F56D9"/>
<path d="M259.857 191.819L250.948 184.439C244.267 187.944 234.101 201.939 234.101 201.939L210.649 218.824C207.833 218.959 205.658 221.353 205.792 224.172C205.926 226.992 208.318 229.169 211.135 229.034C212.963 228.947 214.604 227.888 215.437 226.257L247.302 209.401L259.857 191.819Z" fill="#FFB8B8"/>
<path d="M274.888 163.73C280.03 168.089 280.668 175.796 276.313 180.943C275.825 181.52 275.285 182.05 274.699 182.527L269.034 187.138C269.034 187.138 254.902 207.503 247.546 209.866L228.662 219.742L220.147 211.195L237.262 197.232C237.262 197.232 245.133 189.779 245.922 184.323C246.404 180.981 252.054 171.879 257.716 165.128C262.062 159.996 269.741 159.362 274.868 163.713L274.888 163.73Z" fill="#3F3D56"/>
<path d="M256.579 384.752L248.53 384.751L244.701 353.672L256.581 353.673L256.579 384.752Z" fill="#FFB6B6"/>
<path d="M256.862 393.157L232.111 393.156V392.843C232.111 387.517 236.424 383.199 241.745 383.199L246.267 379.765L254.702 383.199L256.863 383.199L256.862 393.157Z" fill="#2F2E41"/>
<path d="M317.907 342.343L314.096 349.439L284.938 338.098L290.564 327.625L317.907 342.343Z" fill="#FFB6B6"/>
<path d="M325.437 346.073L313.716 367.896L313.44 367.747C308.754 365.225 306.998 359.378 309.517 354.686L309.517 354.686L308.637 349.074L315.653 343.262L316.676 341.357L325.437 346.073Z" fill="#2F2E41"/>
<path d="M241.361 242.427L234.257 299.319L237.809 318.392L301.745 346.432L305.297 334.876C288.954 324.865 271.484 309.714 260.476 308.601C260.476 308.601 259.563 298.504 267.449 292.274C269.04 291.017 268.692 289.316 269.336 287.774C269.778 286.714 271.538 285.61 271.989 284.522C272.573 283.113 271.85 281.712 272.438 280.28C272.768 279.475 274.02 279.424 274.348 278.618C274.908 277.243 274.542 275.115 275.087 273.756C276.253 270.854 277.374 268.016 278.397 265.355C281.583 257.073 283.824 250.511 283.541 249.094C282.653 244.65 241.361 242.427 241.361 242.427Z" fill="#2F2E41"/>
<path d="M240.138 299.154L236.421 323.18L245.801 372.211H258.233C262.7 355.736 262.93 334.083 258.677 315.764L240.138 299.154Z" fill="#2F2E41"/>
<path d="M248.125 172.917L253.856 162.921L260.009 157.979L271.553 156.201L274.76 158.67C286.302 176.329 290.607 197.76 286.779 218.513L285.878 223.398L285.306 226.498L285.554 230.205L283.628 235.6L283.893 239.552L284.034 241.662L284.176 243.78L284.374 246.736C284.729 248.423 282.942 248.201 283.195 249.688C283.639 252.3 285.63 256.17 282.605 256.183L251.346 249.688C243.405 249.721 236.012 240.242 243.679 232.566L248.125 172.917Z" fill="#3F3D56"/>
<path d="M262.757 153.416C271.14 153.416 277.936 146.613 277.936 138.221C277.936 129.829 271.14 123.026 262.757 123.026C254.373 123.026 247.577 129.829 247.577 138.221C247.577 146.613 254.373 153.416 262.757 153.416Z" fill="#FFB8B8"/>
<path d="M263.014 152.985C265.235 153.019 267.455 152.864 269.649 152.52C271.824 152.078 276.691 148.508 278.047 146.36C279.055 144.764 279.7 142.271 280.063 140.462C281.052 135.619 279.944 130.583 277.013 126.605C276.456 125.782 275.688 125.125 274.788 124.704C274.709 124.672 274.626 124.645 274.544 124.621C273.233 124.276 272.056 123.547 271.163 122.527C270.989 122.32 270.801 122.127 270.6 121.948C269.591 121.095 268.394 120.493 267.107 120.192C265.031 119.635 262.026 120.188 258.176 121.835C256.242 122.662 254.126 122.363 252.499 122.009C252.313 121.973 252.122 122.039 251.998 122.181C251.305 122.832 250.393 123.196 249.443 123.201C248.861 123.226 248.251 124.033 247.513 125.084C247.346 125.323 247.151 125.601 247.01 125.77L246.991 125.445L246.662 125.808C244.969 127.676 245.11 130.564 246.975 132.258C247.477 132.713 248.073 133.051 248.721 133.247C249.306 133.403 249.906 133.499 250.51 133.533C250.876 133.566 251.255 133.6 251.618 133.663C253.988 134.149 255.928 135.845 256.729 138.13C257.064 139.066 258.093 139.553 259.028 139.217C259.175 139.165 259.315 139.093 259.443 139.004C260.21 138.406 261.222 138.222 262.151 138.511C262.546 138.731 262.854 139.08 263.023 139.501C263.227 139.969 263.567 140.366 263.998 140.64C265.472 141.401 265.574 144.771 265.044 147.581C264.534 150.289 263.525 152.248 262.591 152.345C261.872 152.42 261.79 152.471 261.738 152.598L261.691 152.712L261.772 152.819C262.169 152.963 262.593 153.019 263.014 152.985Z" fill="#2F2E41"/>
<path d="M232.289 144.024L232.248 144.021C221.174 142.476 209.939 142.476 198.865 144.021H198.847C197.739 144.025 196.645 143.761 195.661 143.251C192.85 141.723 191.578 138.368 192.669 135.359C193.866 132.263 193.915 128.84 192.807 125.712C192.1 123.724 192.359 121.519 193.509 119.751C194.58 118.081 196.377 117.016 198.355 116.881C198.51 116.871 198.666 116.865 198.824 116.865C209.877 118.813 221.185 118.814 232.238 116.869H232.252C234.462 116.862 236.541 117.915 237.843 119.702C238.937 121.271 239.273 123.247 238.759 125.09C237.907 128.411 237.947 131.997 238.884 136.053C239.223 137.472 239.054 138.965 238.404 140.271C237.238 142.578 234.872 144.03 232.289 144.024Z" fill="#7F56D9"/>
<path d="M246.483 179.812L252.764 170.092C248.506 163.86 233.433 155.388 233.433 155.388L213.941 134.045C213.479 131.261 210.849 129.379 208.067 129.842C205.286 130.305 203.406 132.937 203.868 135.721C204.168 137.528 205.411 139.036 207.127 139.674L227.573 169.384L246.483 179.812Z" fill="#FFB8B8"/>
<path d="M276.107 191.473C272.383 197.094 264.812 198.63 259.196 194.902C258.567 194.484 257.978 194.009 257.436 193.482L252.2 188.388C252.2 188.388 230.251 176.915 227.048 169.878L212.666 149.458L222.309 140.75L239.07 156.002C239.07 156.002 246.787 164.935 252.292 165.081C255.663 165.171 265.354 169.723 272.713 174.564C278.313 178.285 279.839 185.846 276.122 191.451L276.107 191.473Z" fill="#3F3D56"/>
<path d="M129.894 393.069L129.853 393.066C118.779 391.521 107.544 391.521 96.4698 393.066H96.452C95.3433 393.07 94.25 392.806 93.2652 392.296C90.4549 390.768 89.1831 387.413 90.2736 384.403C91.4702 381.308 91.5192 377.885 90.4118 374.757C89.7045 372.769 89.9641 370.564 91.1139 368.796C92.1845 367.125 93.9817 366.061 95.9595 365.926C96.115 365.915 96.2711 365.91 96.4289 365.91C107.482 367.857 118.789 367.859 129.843 365.914H129.857C132.066 365.906 134.145 366.96 135.448 368.747C136.541 370.316 136.878 372.292 136.364 374.135C135.512 377.456 135.552 381.042 136.488 385.098C136.828 386.517 136.658 388.01 136.009 389.316C134.842 391.623 132.476 393.075 129.894 393.069Z" fill="#7F56D9"/>
<path d="M139.33 368.272L139.289 368.269C128.215 366.724 116.981 366.724 105.906 368.269H105.889C104.78 368.273 103.687 368.009 102.702 367.499C99.8915 365.971 98.6197 362.616 99.7102 359.606C100.907 356.511 100.956 353.088 99.8484 349.959C99.1411 347.972 99.4007 345.767 100.551 343.999C101.621 342.328 103.418 341.264 105.396 341.129C105.552 341.118 105.708 341.113 105.866 341.113C116.918 343.06 128.226 343.062 139.279 341.117H139.293C141.503 341.109 143.582 342.163 144.884 343.95C145.978 345.519 146.314 347.495 145.801 349.338C144.948 352.659 144.988 356.245 145.925 360.301C146.265 361.719 146.095 363.213 145.445 364.519C144.279 366.826 141.913 368.278 139.33 368.272Z" fill="#7F56D9"/>
<path d="M56.7524 375.031L56.7777 374.999C64.2608 366.683 70.5558 357.367 75.4829 347.32L75.4929 347.305C76.1106 346.383 76.9417 345.625 77.9154 345.094C80.7542 343.62 84.243 344.446 86.122 347.036C88.013 349.763 90.8172 351.721 94.0264 352.556C96.0675 353.083 97.746 354.534 98.5651 356.478C99.3472 358.302 99.2209 360.388 98.2245 362.104C98.146 362.239 98.0631 362.371 97.9747 362.502C90.1701 370.575 83.833 379.95 79.2485 390.205L79.2408 390.216C78.0092 392.052 75.9725 393.186 73.7643 393.265C71.8534 393.292 70.03 392.464 68.793 391.005C66.5228 388.438 63.5332 386.462 59.6526 384.966C58.2882 384.452 57.1477 383.475 56.431 382.204C55.1758 379.945 55.3001 377.17 56.7524 375.031Z" fill="#7F56D9"/>
<path d="M442.301 393.969L0.698589 394.151C0.310751 394.149 -0.00201905 393.832 9.81502e-06 393.444C0.00201509 393.059 0.313611 392.747 0.698589 392.745L442.301 392.563C442.689 392.565 443.002 392.882 443 393.27C442.998 393.655 442.686 393.967 442.301 393.969Z" fill="#CACACA"/>
<path d="M94.5142 31.8277C97.2688 31.8277 99.5018 29.5425 99.5018 26.7236C99.5018 23.9047 97.2688 21.6195 94.5142 21.6195C91.7596 21.6195 89.5266 23.9047 89.5266 26.7236C89.5266 29.5425 91.7596 31.8277 94.5142 31.8277Z" fill="#3F3D56"/>
<path d="M111.744 31.8277C114.499 31.8277 116.732 29.5425 116.732 26.7236C116.732 23.9047 114.499 21.6195 111.744 21.6195C108.99 21.6195 106.756 23.9047 106.756 26.7236C106.756 29.5425 108.99 31.8277 111.744 31.8277Z" fill="#3F3D56"/>
<path d="M128.974 31.8277C131.729 31.8277 133.962 29.5425 133.962 26.7236C133.962 23.9047 131.729 21.6195 128.974 21.6195C126.219 21.6195 123.986 23.9047 123.986 26.7236C123.986 29.5425 126.219 31.8277 128.974 31.8277Z" fill="#3F3D56"/>
<path d="M148.621 30.7577C148.467 30.7577 148.314 30.6983 148.199 30.5802L144.834 27.1363C144.609 26.9068 144.609 26.5401 144.834 26.3107L148.199 22.8671C148.427 22.6342 148.801 22.6304 149.033 22.8579C149.266 23.0859 149.27 23.4598 149.042 23.6927L146.08 26.7235L149.042 29.7545C149.27 29.9874 149.266 30.3613 149.033 30.5894C148.918 30.7018 148.769 30.7577 148.621 30.7577Z" fill="#3F3D56"/>
<path d="M154.276 30.7577C154.127 30.7577 153.978 30.7018 153.863 30.5894C153.63 30.3614 153.626 29.9877 153.854 29.7545L156.816 26.7235L153.854 23.6928C153.626 23.4598 153.63 23.0859 153.863 22.8579C154.096 22.6296 154.47 22.6339 154.697 22.8671L158.062 26.3107C158.287 26.5401 158.287 26.9068 158.062 27.1363L154.697 30.5802C154.582 30.6984 154.429 30.7577 154.276 30.7577Z" fill="#3F3D56"/>
<path d="M330.333 22.2104H324.075C323.362 22.2104 322.784 22.789 322.784 23.5034V29.7735C322.784 30.488 323.362 31.0665 324.075 31.0665H330.333C331.047 31.0665 331.63 30.488 331.63 29.7735V23.5034C331.63 22.789 331.047 22.2104 330.333 22.2104Z" fill="#3F3D56"/>
<path d="M314.998 22.2104H308.741C308.027 22.2104 307.449 22.789 307.449 23.5034V29.7735C307.449 30.488 308.027 31.0665 308.741 31.0665H314.998C315.712 31.0665 316.296 30.488 316.296 29.7735V23.5034C316.296 22.789 315.712 22.2104 314.998 22.2104Z" fill="#3F3D56"/>
<path d="M344.783 22.5056H338.525C337.811 22.5056 337.233 23.0842 337.233 23.7986V30.0688C337.233 30.7832 337.811 31.3618 338.525 31.3618H344.783C345.496 31.3618 346.08 30.7832 346.08 30.0688V23.7986C346.08 23.0842 345.496 22.5056 344.783 22.5056Z" fill="#3F3D56"/>
<path d="M250.463 24.8909H200.443C199.57 24.8909 198.868 25.5994 198.868 26.4673C198.868 27.3352 199.57 28.0437 200.443 28.0437H250.463C251.33 28.0437 252.038 27.3352 252.038 26.4673C252.038 25.5994 251.33 24.8909 250.463 24.8909Z" fill="#3F3D56"/>
</g>
<defs>
<clipPath id="clip0_645_4460">
<rect width="443" height="395" fill="white"/>
</clipPath>
</defs>
</svg>
