<svg width="213" height="224" viewBox="0 0 213 224" fill="none" xmlns="http://www.w3.org/2000/svg">
<g clip-path="url(#clip0_635_3064)">
<path d="M82.3956 224C127.901 224 164.791 217.45 164.791 209.371C164.791 201.291 127.901 194.742 82.3956 194.742C36.8898 194.742 0 201.291 0 209.371C0 217.45 36.8898 224 82.3956 224Z" fill="#3F3D56"/>
<path d="M132.474 161.86C176.947 161.86 213 125.626 213 80.9299C213 36.2335 176.947 0 132.474 0C88.0007 0 51.948 36.2335 51.948 80.9299C51.948 125.626 88.0007 161.86 132.474 161.86Z" fill="#3F3D56"/>
<path opacity="0.05" d="M132.474 147.74C169.188 147.74 198.951 117.828 198.951 80.9298C198.951 44.0316 169.188 14.1196 132.474 14.1196C95.7597 14.1196 65.9971 44.0316 65.9971 80.9298C65.9971 117.828 95.7597 147.74 132.474 147.74Z" fill="black"/>
<path opacity="0.05" d="M132.474 135.687C162.564 135.687 186.958 111.171 186.958 80.9299C186.958 50.6886 162.564 26.1731 132.474 26.1731C102.384 26.1731 77.9905 50.6886 77.9905 80.9299C77.9905 111.171 102.384 135.687 132.474 135.687Z" fill="black"/>
<path opacity="0.05" d="M132.474 120.19C154.048 120.19 171.538 102.613 171.538 80.93C171.538 59.2475 154.048 41.6704 132.474 41.6704C110.9 41.6704 93.4104 59.2475 93.4104 80.93C93.4104 102.613 110.9 120.19 132.474 120.19Z" fill="black"/>
<path d="M52.6612 88.1726C52.6612 88.1726 46.3302 106.082 49.144 112.445C51.9577 118.808 56.4129 124.935 56.4129 124.935C56.4129 124.935 54.7715 89.3509 52.6612 88.1726Z" fill="#D0CDE1"/>
<path opacity="0.1" d="M52.6612 88.1726C52.6612 88.1726 46.3302 106.082 49.144 112.445C51.9577 118.808 56.4129 124.935 56.4129 124.935C56.4129 124.935 54.7715 89.3509 52.6612 88.1726Z" fill="black"/>
<path d="M57.1163 129.648C57.1163 129.648 56.6473 134.126 56.4128 134.361C56.1783 134.597 56.6473 135.068 56.4128 135.775C56.1783 136.482 55.9439 137.425 56.4128 137.66C56.8818 137.896 53.8335 158.634 53.8335 158.634C53.8335 158.634 46.3302 168.531 49.3784 184.085L50.3163 199.874C50.3163 199.874 57.5852 200.345 57.5852 197.753C57.5852 197.753 57.1163 194.689 57.1163 193.275C57.1163 191.861 58.2887 191.861 57.5852 191.154C56.8818 190.447 56.8818 189.976 56.8818 189.976C56.8818 189.976 58.0542 189.033 57.8197 188.798C57.5852 188.562 59.93 171.83 59.93 171.83C59.93 171.83 62.5093 169.238 62.5093 167.824V166.41C62.5093 166.41 63.6817 163.347 63.6817 163.111C63.6817 162.876 70.0126 148.501 70.0126 148.501L72.5919 158.869L75.4057 173.716C75.4057 173.716 76.8126 187.148 79.6263 192.333C79.6263 192.333 84.5504 209.3 84.5504 208.828C84.5504 208.357 92.7572 207.179 92.5227 205.058C92.2882 202.937 87.5986 173.244 87.5986 173.244L88.771 129.177L57.1163 129.648Z" fill="#2F2E41"/>
<path d="M50.7853 198.695C50.7853 198.695 44.4543 211.185 48.675 211.656C52.8956 212.128 54.537 212.128 56.4128 210.242C57.4383 209.212 59.5151 207.829 61.1871 206.787C62.1779 206.18 62.9782 205.304 63.4964 204.26C64.0145 203.217 64.2295 202.047 64.1167 200.887C63.9931 199.734 63.5644 198.784 62.5093 198.695C59.6955 198.46 56.4128 195.867 56.4128 195.867L50.7853 198.695Z" fill="#2F2E41"/>
<path d="M85.7228 207.886C85.7228 207.886 79.3918 220.376 83.6125 220.847C87.8331 221.318 89.4745 221.318 91.3503 219.433C92.3758 218.402 94.4526 217.019 96.1246 215.978C97.1154 215.37 97.9157 214.494 98.4339 213.451C98.952 212.407 99.1671 211.238 99.0543 210.077C98.9306 208.924 98.5019 207.974 97.4468 207.886C94.633 207.65 91.3503 205.058 91.3503 205.058L85.7228 207.886Z" fill="#2F2E41"/>
<path d="M79.0317 67.7333C84.4754 67.7333 88.8884 63.2982 88.8884 57.8272C88.8884 52.3563 84.4754 47.9211 79.0317 47.9211C73.588 47.9211 69.175 52.3563 69.175 57.8272C69.175 63.2982 73.588 67.7333 79.0317 67.7333Z" fill="#FFB8B8"/>
<path d="M72.6952 61.0823C72.6952 61.0823 65.6547 74.1017 65.0915 74.1017C64.5282 74.1017 77.7643 78.3472 77.7643 78.3472C77.7643 78.3472 81.4253 65.8938 81.9886 64.7617L72.6952 61.0823Z" fill="#FFB8B8"/>
<path d="M83.4952 75.3294C83.4952 75.3294 69.4264 67.5528 68.0195 67.7885C66.6126 68.0241 51.6059 81.2208 51.8404 86.6409C52.0748 92.061 53.9507 101.016 53.9507 101.016C53.9507 101.016 54.6541 125.995 56.061 126.231C57.4679 126.467 55.8265 130.709 56.2955 130.709C56.7644 130.709 89.1227 130.709 89.3571 130.002C89.5916 129.295 83.4952 75.3294 83.4952 75.3294Z" fill="#D0CDE1"/>
<path d="M91.3502 131.298C91.3502 131.298 95.8054 144.966 92.0537 144.494C88.302 144.023 86.6606 132.712 86.6606 132.712L91.3502 131.298Z" fill="#FFB8B8"/>
<path d="M79.3919 74.5046C79.3919 74.5046 70.7162 76.3898 72.1231 88.1726C73.5299 99.9554 76.1092 111.738 76.1092 111.738L84.785 130.826L85.7229 134.361L92.0539 132.712L87.3643 105.375C87.3643 105.375 85.7229 76.1542 83.6126 75.2115C82.2818 74.6414 80.8348 74.399 79.3919 74.5046Z" fill="#D0CDE1"/>
<path opacity="0.1" d="M74.116 111.385L84.9022 130.708L75.8146 110.346L74.116 111.385Z" fill="black"/>
<path d="M88.8446 54.9105L88.8772 54.1535L90.3756 54.5283C90.3595 54.2853 90.2912 54.0487 90.1752 53.8348C90.0593 53.6209 89.8986 53.4349 89.7042 53.2895L91.3002 53.1998C89.9609 51.2871 88.2498 49.6671 86.2702 48.4375C84.2906 47.2079 82.0835 46.3944 79.7823 46.046C76.33 45.5431 72.486 46.2708 70.1186 48.8457C68.9704 50.0947 68.2489 51.683 67.7356 53.3034C66.7904 56.2878 66.5978 59.8454 68.5688 62.2713C70.5721 64.7368 74.0713 65.2198 77.224 65.5249C78.3332 65.6323 79.4957 65.7322 80.5237 65.2996C80.6381 64.1147 80.4872 62.919 80.082 61.8002C79.9132 61.4539 79.8326 61.0709 79.8472 60.6856C79.9874 59.743 81.2384 59.5055 82.1783 59.6329C83.1181 59.7602 84.2481 59.9551 84.8657 59.2318C85.291 58.7335 85.2659 58.008 85.3223 57.3539C85.4757 55.5733 88.8285 55.2838 88.8446 54.9105Z" fill="#2F2E41"/>
<path d="M149.3 211.384C155.643 211.384 160.785 206.216 160.785 199.842C160.785 193.467 155.643 188.3 149.3 188.3C142.958 188.3 137.816 193.467 137.816 199.842C137.816 206.216 142.958 211.384 149.3 211.384Z" fill="#7F56D9"/>
<path d="M14.4226 207.358C20.7654 207.358 25.9073 202.19 25.9073 195.815C25.9073 189.441 20.7654 184.273 14.4226 184.273C8.07984 184.273 2.93799 189.441 2.93799 195.815C2.93799 202.19 8.07984 207.358 14.4226 207.358Z" fill="#7F56D9"/>
<path d="M14.4227 188.836C18.9954 188.836 22.7023 185.111 22.7023 180.515C22.7023 175.92 18.9954 172.194 14.4227 172.194C9.84998 172.194 6.14307 175.92 6.14307 180.515C6.14307 185.111 9.84998 188.836 14.4227 188.836Z" fill="#7F56D9"/>
<path d="M14.4225 173.536C17.6676 173.536 20.2984 170.892 20.2984 167.631C20.2984 164.369 17.6676 161.726 14.4225 161.726C11.1773 161.726 8.54663 164.369 8.54663 167.631C8.54663 170.892 11.1773 173.536 14.4225 173.536Z" fill="#7F56D9"/>
</g>
<defs>
<clipPath id="clip0_635_3064">
<rect width="213" height="224" fill="white"/>
</clipPath>
</defs>
</svg>
